# xmcd
#
# Track frame offsets: 
#        150
#        10654
#        23888
#        37367
#        51501
#        67533
#        80277
#        93527
#        105180
#        116970
#        127737
#        142713
#        153762
#        165811
#        180831
#        198910
#        212711
#        224197
#        234497
#        246548
#
# Disc length: 3471 seconds
#
# Revision: 1
# Processed by: cddbd v1.5.2PL0 Copyright (c) Steve Scherf et al.
# Submitted via: ExactAudioCopy v0.99pb5
#
DISCID=020d8d14
DTITLE=Various Artist - Das groﬂe Country-Festival - CD 2
DYEAR=2006
DGENRE=Country
TTITLE0=Carl Perkins - What am I living for 
TTITLE1=Carol Ann King - Baby 
TTITLE2=Freddy Quinn - Green green grass of home
TTITLE3=Geil Gavan - I pretend
TTITLE4=Bobby Bare - Mary Ann regrets
TTITLE5=Kenny Rodgers and The First Edition - Ruby, don't take your love
TTITLE5=to town
TTITLE6=Lynn Anderson - Rose garden (Neuaufnahme) 
TTITLE7=Dave Dudley - Six days on the road
TTITLE8=Ricky Skaggs - Are you proud of America
TTITLE9=Patsy Cline and Crystal Gayle - I can't forget you
TTITLE10=Ed Bruce - You're the best break this old heart ever had (Liv
TTITLE10=e) 
TTITLE11=Conway Twitty  - It's only make believe (Neuaufnahme)
TTITLE12=Ferlin Husky - That big ole moon
TTITLE13=Bobby Bare - For the good times (lay your head upon my pillow
TTITLE13=) (Neuaufname)
TTITLE14=Ed Bruce - Mamas don't let your babies grow up to be cowboys 
TTITLE14=(Live)
TTITLE15=Barbara Fairchild - Teddy bear song
TTITLE16=Jonny Hill - Ich komm' nicht los von dir (You've a good hold 
TTITLE16=on me)
TTITLE17=Ferlin Husky - Wings of a dove
TTITLE18=Don Williams - On her way to be a woman
TTITLE19=Willie Nelson - Home is where you're happy
EXTD=YEAR: 2006
EXTT0=
EXTT1=
EXTT2=
EXTT3=
EXTT4=
EXTT5=
EXTT6=
EXTT7=
EXTT8=
EXTT9=
EXTT10=
EXTT11=
EXTT12=
EXTT13=
EXTT14=
EXTT15=
EXTT16=
EXTT17=
EXTT18=
EXTT19=
PLAYORDER=
